<?xml version="1.0" encoding="UTF-8"?><svg id="a" xmlns="http://www.w3.org/2000/svg" viewBox="0 0 118.08 128"><defs><style>.b{fill:#9cd9ff;}.c{fill:#1f2325;}.d{fill:#56a2e8;}</style></defs><path class="d" d="m58.78,0c1.73-.03,3.28.33,4.85,1.04,2.29,1.04,4.46,2.49,6.62,3.75l11.23,6.49,20.37,11.85,7.08,4.2c1.65.99,3.41,1.92,4.92,3.12,2.32,1.84,3.86,4.6,4.16,7.56.11,1.08.05,2.23.05,3.32v5.82s-.03,18.32-.03,18.32v16.97s0,4.94,0,4.94c0,1.3.04,2.6-.15,3.88-.26,1.87-1.22,3.85-2.42,5.3-.69.83-1.51,1.47-2.41,2.05-2.14,1.38-4.48,2.53-6.7,3.79l-14.13,8.14-15.49,8.86-7.91,4.57c-1.52.86-3.02,1.78-4.59,2.55-1.62.79-3.13,1.33-4.94,1.48-1.78.05-3.47-.4-5.07-1.15-3.43-1.61-6.65-3.87-9.94-5.75l-24.18-13.91-10.5-5.96c-1.85-1.04-3.92-1.98-5.58-3.3-2.31-1.85-3.61-4.31-3.93-7.25-.12-1.07-.05-2.21-.05-3.29v-5.87s0-18.66,0-18.66L.01,46.46v-5.38c0-1.13-.05-2.3.09-3.41.24-1.8,1.17-3.95,2.32-5.35.94-1.14,2.09-1.99,3.32-2.79,2.32-1.51,4.79-2.77,7.17-4.17l18.23-10.57,14.67-8.53c2.78-1.62,5.55-3.39,8.43-4.81C55.74.7,57.11.17,58.78,0Z"/><path class="c" d="m58.87,10.92c2.02-.18,3.41.31,5.17,1.24l4.33,2.48,18.01,10.65,12.62,7.28,4.79,2.75c1.42.8,2.91,1.54,4.2,2.53.93.71,1.66,1.67,1.97,2.8.31,1.1.21,2.38.22,3.52v5.16s-.03,18.59-.03,18.59l.03,13.81-.03,6.68c-.05.86-.17,1.63-.59,2.4-.57,1.02-1.4,1.69-2.38,2.3-2.02,1.27-4.21,2.32-6.29,3.5l-18.21,10.13-7.81,4.57-6.61,3.74c-2.51,1.45-5.07,3.45-7.87,4.22-1.24.23-2.48-.1-3.6-.63-1.88-.88-3.64-2.19-5.42-3.26l-9.38-5.46-19.6-11.3-10.54-5.95c-1.21-.73-2.39-1.77-2.71-3.22-.19-.86-.15-1.8-.16-2.68v-4.45s-.03-14.58-.03-14.58v-17.4c0-2.85-.19-5.84.02-8.68.06-.86.4-1.78.89-2.49.44-.63,1.08-1.19,1.72-1.61,1.66-1.09,3.48-1.97,5.2-2.98l15.32-8.87,16-9.14c2.7-1.55,5.32-3.33,8.09-4.74.89-.46,1.71-.75,2.7-.92Z"/><path class="d" d="m58.71,26.49c1.65-.12,3.36.38,4.85,1.03,1.56.68,3.04,1.59,4.51,2.45l7.3,4.23,11.24,6.43c2.36,1.36,5.05,2.71,7.13,4.48.54.45,1.5,1.34,1.55,2.07.17,2.28.03,4.67.03,6.96l-.02,13.65-.04,10.06c0,1.54.14,3.26-.07,4.78-.13.96-.72,1.84-1.35,2.55-.55.63-1.22,1.17-1.93,1.62-1.48.95-3.08,1.73-4.62,2.59l-8.44,4.82-10.18,5.84c-1.64.92-3.23,1.94-4.95,2.71-1.38.61-2.61.88-4.11.98-1.97-.08-3.79-.45-5.6-1.24-2.12-.92-4.11-2.24-6.08-3.42l-7.99-4.64-9.07-5.18c-1.86-1.03-3.93-1.94-5.64-3.2-1.2-.88-2.11-2.02-2.32-3.53-.24-1.7-.06-3.64-.05-5.36l.02-11.07v-12.66c0-1.97-.17-4.08.01-6.04.05-.5.26-.82.57-1.21.65-.82,1.42-1.46,2.29-2.03,2.06-1.36,4.27-2.54,6.42-3.76l9.99-5.71,6.95-4.1c1.75-1.05,3.53-2.15,5.39-3,1.39-.64,2.69-.95,4.21-1.11Z"/><path class="c" d="m30.96,71.95l12.4,7.04,5.66,3.45c2.4,1.47,4.87,3.07,7.59,3.86,1.76.51,3.62.55,5.38.02,2.42-.73,4.6-2.18,6.75-3.48l6.88-4.18,11.34-6.45c.14.92.06,1.96.07,2.9,0,.81.11,1.78-.05,2.58l-.03.13c-.1.47-.33.8-.6,1.19-.49.52-.99.95-1.59,1.35-1.64,1.09-3.43,2.01-5.13,2.99l-6.87,4.05-5.49,3.25c-1.57.95-3.14,1.94-4.8,2.74-1.02.49-2.06.9-3.21.91-1.16.01-2.23-.32-3.28-.8-1.85-.85-3.6-1.95-5.35-2.98l-8.63-5.16-5.11-2.92c-1.7-.95-3.81-1.88-5.19-3.29-.26-.27-.54-.64-.66-1-.19-.58-.09-1.39-.09-2.01v-4.2Z"/><path class="b" d="m58.52,36.55c.91-.1,1.78-.03,2.64.27,2.01.7,3.9,2.01,5.74,3.06l12.35,7.02c-1.23.41-2.45,1.17-3.59,1.8l-7.41,4.41c-2.42,1.5-4.98,3.39-7.71,4.24l-.14.04c-1.08.27-2.06.17-3.1-.22-2.73-1.02-5.3-3.02-7.79-4.56l-9.71-5.85c1.29-.47,2.5-1.3,3.69-1.98l6.54-3.83c2.69-1.61,5.44-3.66,8.5-4.41Z"/><path class="c" d="m31.1,52.77l14.56,8.27,5.06,3.11c1.61.99,3.25,2,5.04,2.6,2.1.71,4.26.91,6.42.32,2.89-.78,5.5-2.79,8.06-4.29,5.56-3.28,11.03-6.83,16.82-9.7-.09,1.44-.04,2.87-.01,4.31.02.82.12,1.83-.08,2.62-.16.65-.5,1.15-.89,1.67-1.2,1.31-2.9,2.14-4.41,3.03l-5.73,3.34-8.47,5.07c-1.54.91-3.08,1.88-4.68,2.68-1.01.51-2.13.98-3.27,1.09-1.15.11-2.25-.28-3.28-.75-2.18-1-4.23-2.4-6.28-3.64l-8.45-4.97-4.98-2.85c-1.32-.74-2.76-1.46-3.91-2.46-.59-.51-1.12-1.15-1.35-1.9-.28-.91-.15-1.89-.14-2.83.02-1.57.07-3.17-.03-4.73Z"/></svg>